<?xml version="1.0" standalone="no"?>
<!DOCTYPE svg PUBLIC "-//W3C//DTD SVG 20010904//EN"
 "http://www.w3.org/TR/2001/REC-SVG-20010904/DTD/svg10.dtd">
<svg version="1.0" xmlns="http://www.w3.org/2000/svg"
 width="640.000000pt" height="640.000000pt" viewBox="0 0 640.000000 640.000000"
 preserveAspectRatio="xMidYMid meet">
<metadata>
Created by potrace 1.15, written by Peter Selinger 2001-2017
</metadata>
<g transform="translate(0.000000,640.000000) scale(0.100000,-0.100000)"
fill="#000000" stroke="none">
<path d="M2315 5718 c-36 -19 -45 -40 -45 -105 0 -91 -22 -375 -95 -1228 -159
-1851 -276 -3303 -278 -3459 -2 -116 -2 -119 23 -138 49 -36 402 -73 633 -66
167 4 158 -10 181 284 116 1510 288 2607 488 3128 30 77 31 79 44 54 24 -46
102 -291 138 -433 145 -580 263 -1423 356 -2545 40 -478 39 -475 98 -486 19
-4 121 -4 226 0 322 12 474 33 518 73 19 17 20 26 14 137 -11 219 -163 2082
-257 3156 -75 861 -97 1136 -109 1340 -16 266 -16 267 -50 285 -33 17 -45 15
-195 -29 -284 -85 -780 -118 -1115 -76 -130 17 -367 66 -449 95 -83 28 -97 29
-126 13z m248 -228 c160 -34 267 -49 422 -61 263 -20 706 5 925 51 52 12 109
23 126 26 l31 6 7 -98 c4 -55 36 -434 71 -844 142 -1646 295 -3526 295 -3626
0 -18 -8 -22 -46 -28 -68 -9 -424 -29 -429 -24 -3 3 -18 166 -35 364 -114
1362 -267 2331 -457 2878 -42 123 -115 274 -149 311 -22 24 -31 27 -70 22 -53
-6 -75 -23 -114 -92 -172 -301 -337 -1051 -459 -2100 -57 -481 -121 -1177
-121 -1309 l0 -79 -156 7 c-147 6 -276 19 -317 32 -17 5 -18 15 -12 112 16
268 179 2252 285 3467 38 440 72 846 76 903 5 76 10 102 21 102 7 0 55 -9 106
-20z"/>
</g>
</svg>
