<?xml version="1.0" standalone="no"?>
<!DOCTYPE svg PUBLIC "-//W3C//DTD SVG 20010904//EN"
 "http://www.w3.org/TR/2001/REC-SVG-20010904/DTD/svg10.dtd">
<svg version="1.0" xmlns="http://www.w3.org/2000/svg"
 width="512.000000pt" height="512.000000pt" viewBox="0 0 512.000000 512.000000"
 preserveAspectRatio="xMidYMid meet">
<metadata>
Created by potrace 1.15, written by Peter Selinger 2001-2017
</metadata>
<g transform="translate(0.000000,512.000000) scale(0.100000,-0.100000)"
fill="#000000" stroke="none">
<path d="M2475 4474 c-154 -17 -390 -78 -412 -107 -6 -6 -29 -60 -53 -118
l-43 -106 -341 -118 c-188 -65 -348 -125 -358 -134 -21 -21 -498 -1173 -498
-1204 0 -13 8 -31 18 -39 9 -9 153 -71 319 -137 229 -93 308 -120 328 -115 18
4 33 21 49 52 l23 45 -4 -99 c-2 -54 -15 -389 -28 -744 -26 -721 -29 -666 48
-741 124 -120 365 -206 669 -239 125 -13 478 -13 633 1 385 33 692 116 838
228 111 85 103 -1 73 773 -14 370 -28 707 -31 748 l-5 75 23 -45 c38 -77 34
-77 377 59 296 118 340 142 340 180 0 9 -36 104 -81 211 -133 322 -267 645
-336 815 -36 88 -73 167 -83 176 -10 8 -161 68 -337 133 l-319 118 -45 111
c-25 62 -52 115 -64 123 -28 18 -179 61 -282 79 -88 15 -343 27 -418 19z m429
-154 c114 -24 121 -27 106 -45 -8 -10 -21 -10 -68 1 -158 36 -352 42 -529 17
-145 -20 -175 -21 -180 -7 -4 11 101 38 217 54 102 14 341 4 454 -20z m-698
-212 c38 -45 77 -92 86 -104 17 -21 16 -26 -22 -128 -21 -58 -43 -113 -48
-121 -6 -12 -26 32 -70 157 -34 95 -62 176 -62 179 0 9 40 99 44 99 1 0 34
-37 72 -82z m939 27 l17 -46 -63 -178 -64 -178 -47 125 -47 125 86 103 c48 57
90 101 93 99 4 -3 15 -25 25 -50z m-360 34 c50 -6 96 -14 103 -18 21 -12 -50
-91 -111 -125 -107 -59 -100 -49 -94 -135 5 -68 2 -85 -26 -158 -17 -46 -33
-83 -36 -83 -4 0 -26 38 -49 85 -37 75 -42 93 -42 153 0 74 -5 86 -62 130 -49
38 -120 124 -110 133 25 24 286 35 427 18z m-720 -404 c48 -132 93 -250 101
-262 19 -31 77 -32 97 -2 8 11 41 91 73 177 54 143 59 154 64 122 4 -19 41
-104 84 -188 l79 -152 -12 -498 c-21 -874 -13 -2080 15 -2161 4 -12 -26 -13
-188 -8 -283 8 -462 43 -623 122 -49 24 -108 60 -130 78 l-40 35 3 103 c2 57
16 464 32 904 26 713 28 802 15 822 -15 23 -54 30 -88 17 -8 -3 -47 -77 -87
-165 -40 -87 -78 -159 -84 -159 -7 0 -110 40 -231 89 -138 55 -219 93 -217
101 1 6 50 127 109 269 143 347 190 461 258 626 31 77 62 145 68 151 7 7 125
51 262 98 138 48 273 95 300 106 28 10 51 17 52 16 1 -1 40 -109 88 -241z
m1495 135 c151 -56 279 -106 283 -110 4 -4 28 -56 53 -116 81 -194 255 -615
320 -774 35 -85 64 -160 64 -165 0 -6 -102 -52 -227 -102 l-227 -90 -71 152
c-38 84 -76 160 -84 169 -19 22 -74 21 -95 -3 -17 -19 -16 -60 18 -917 l36
-897 -21 -23 c-31 -33 -161 -98 -254 -127 -143 -45 -350 -80 -587 -102 -64 -5
-68 -4 -73 17 -9 40 -25 375 -25 519 l0 139 20 -20 c27 -27 83 -27 110 0 12
12 20 33 20 55 0 22 -8 43 -20 55 -24 24 -76 26 -106 5 -21 -14 -21 -13 -28
100 -9 149 2 335 19 312 48 -66 158 -17 140 63 -13 60 -86 80 -130 35 l-25
-24 0 227 c0 125 5 441 11 702 l12 475 64 170 c60 156 65 174 59 223 -11 96
14 54 91 -149 40 -106 81 -200 90 -206 24 -18 67 -16 85 5 8 9 55 128 103 264
49 136 92 245 95 243 3 -2 129 -49 280 -105z"/>
<path d="M2763 3538 c-48 -23 -49 -99 -1 -132 78 -55 161 52 93 119 -26 26
-56 31 -92 13z"/>
<path d="M2755 3062 c-56 -11 -76 -91 -33 -132 48 -44 128 -11 128 53 0 58
-39 90 -95 79z"/>
<path d="M2706 2529 c-37 -29 -37 -89 0 -118 15 -12 37 -21 49 -21 12 0 34 9
49 21 37 29 37 89 0 118 -15 12 -37 21 -49 21 -12 0 -34 -9 -49 -21z"/>
</g>
</svg>
